<svg width="206" height="80" viewBox="0 0 206 80" fill="none" xmlns="http://www.w3.org/2000/svg">
<mask id="mask0" mask-type="alpha" maskUnits="userSpaceOnUse" x="0" y="0" width="206" height="80">
<path d="M9.18809 17.6982C37.2438 -29.535 230.409 30.2285 202.909 52.7285C175.409 75.2285 -47.4824 113.106 9.18809 17.6982Z" fill="#C4C4C4"/>
</mask>
<g mask="url(#mask0)">
<path d="M218 -4H-15V81H218V-4Z" fill="white"/>
<path d="M12.488 57.3681C12.072 58.4561 11.352 59.0001 10.328 59.0001H1.25595C0.967951 59.0001 0.711951 58.9041 0.487951 58.7121C0.295951 58.4881 0.199951 58.2321 0.199951 57.9441L0.247951 57.6561L10.712 26.9841C10.84 26.5681 11.08 26.2001 11.432 25.8801C11.784 25.5601 12.264 25.4001 12.872 25.4001H26.216C26.8239 25.4001 27.304 25.5601 27.656 25.8801C28.0079 26.2001 28.2479 26.5681 28.3759 26.9841L38.84 57.6561L38.888 57.9441C38.888 58.2321 38.7759 58.4881 38.5519 58.7121C38.3599 58.9041 38.1199 59.0001 37.832 59.0001H28.76C27.736 59.0001 27.016 58.4561 26.6 57.3681L25.4 54.0081H13.688L12.488 57.3681ZM19.544 34.6641L16.136 44.6481H22.952L19.544 34.6641ZM73.2852 25.4001C73.6373 25.4001 73.9413 25.5281 74.1972 25.7841C74.4531 26.0401 74.5813 26.3441 74.5813 26.6961V57.7041C74.5813 58.0561 74.4531 58.3601 74.1972 58.6161C73.9413 58.8721 73.6373 59.0001 73.2852 59.0001H63.3973C63.0452 59.0001 62.7412 58.8721 62.4852 58.6161C62.2292 58.3601 62.1012 58.0561 62.1012 57.7041V47.4801H52.5012V57.7041C52.5012 58.0561 52.3731 58.3601 52.1171 58.6161C51.8611 58.8721 51.5572 59.0001 51.2052 59.0001H41.3172C40.9651 59.0001 40.6612 58.8881 40.4052 58.6641C40.1492 58.4081 40.0211 58.0881 40.0211 57.7041V26.6961C40.0211 26.3441 40.1492 26.0401 40.4052 25.7841C40.6612 25.5281 40.9651 25.4001 41.3172 25.4001H51.2052C51.5572 25.4001 51.8611 25.5281 52.1171 25.7841C52.3731 26.0401 52.5012 26.3441 52.5012 26.6961V36.5361H62.1012V26.6961C62.1012 26.3441 62.2292 26.0401 62.4852 25.7841C62.7412 25.5281 63.0452 25.4001 63.3973 25.4001H73.2852ZM101.491 26.6961C101.97 25.8321 102.658 25.4001 103.554 25.4001H112.339C112.691 25.4001 112.995 25.5281 113.251 25.7841C113.506 26.0401 113.634 26.3441 113.634 26.6961V57.7041C113.634 58.0561 113.506 58.3601 113.251 58.6161C112.995 58.8721 112.691 59.0001 112.339 59.0001H103.65C103.298 59.0001 102.994 58.8721 102.738 58.6161C102.482 58.3601 102.354 58.0561 102.354 57.7041V42.8241L98.8505 49.7361C98.7545 49.9601 98.5304 50.2161 98.1785 50.5041C97.8265 50.7921 97.3785 50.9361 96.8345 50.9361H93.5705C93.0265 50.9361 92.5785 50.7921 92.2265 50.5041C91.8745 50.2161 91.6505 49.9601 91.5545 49.7361L88.0505 42.8241V57.7041C88.0505 58.0561 87.9224 58.3601 87.6665 58.6161C87.4105 58.8721 87.1065 59.0001 86.7545 59.0001H78.0665C77.7145 59.0001 77.4105 58.8721 77.1545 58.6161C76.8985 58.3601 76.7705 58.0561 76.7705 57.7041V26.6961C76.7705 26.3441 76.8985 26.0401 77.1545 25.7841C77.4105 25.5281 77.7145 25.4001 78.0665 25.4001H86.8505C87.7465 25.4001 88.4344 25.8321 88.9145 26.6961L95.2025 38.2161L101.491 26.6961ZM148.656 49.6401C149.008 49.6401 149.312 49.7681 149.568 50.0241C149.824 50.2801 149.952 50.5841 149.952 50.9361V57.7041C149.952 58.0561 149.824 58.3601 149.568 58.6161C149.312 58.8721 149.008 59.0001 148.656 59.0001H118.32C117.968 59.0001 117.664 58.8721 117.408 58.6161C117.152 58.3601 117.024 58.0561 117.024 57.7041V26.6961C117.024 26.3441 117.152 26.0401 117.408 25.7841C117.664 25.5281 117.968 25.4001 118.32 25.4001H148.176C148.528 25.4001 148.832 25.5281 149.088 25.7841C149.344 26.0401 149.472 26.3441 149.472 26.6961V33.4641C149.472 33.8161 149.344 34.1201 149.088 34.3761C148.832 34.6321 148.528 34.7601 148.176 34.7601H129.504V37.7841H145.536C145.888 37.7841 146.192 37.9121 146.448 38.1681C146.704 38.4241 146.832 38.7281 146.832 39.0801V45.3201C146.832 45.6721 146.704 45.9761 146.448 46.2321C146.192 46.4881 145.888 46.6161 145.536 46.6161H129.504V49.6401H148.656ZM187.565 25.4001C187.917 25.4001 188.221 25.5281 188.477 25.7841C188.733 26.0401 188.861 26.3441 188.861 26.6961V34.4241C188.861 34.7761 188.733 35.0801 188.477 35.3361C188.221 35.5921 187.917 35.7201 187.565 35.7201H177.245V57.7041C177.245 58.0561 177.117 58.3601 176.861 58.6161C176.605 58.8721 176.301 59.0001 175.949 59.0001H166.061C165.709 59.0001 165.405 58.8721 165.149 58.6161C164.893 58.3601 164.765 58.0561 164.765 57.7041V35.7201H154.445C154.093 35.7201 153.789 35.5921 153.533 35.3361C153.277 35.0801 153.149 34.7761 153.149 34.4241V26.6961C153.149 26.3441 153.277 26.0401 153.533 25.7841C153.789 25.5281 154.093 25.4001 154.445 25.4001H187.565Z" fill="#07689F"/>
</g>
</svg>
